<?xml version="1.0" encoding="UTF-8" standalone="no"?>
<svg
   xmlns:dc="http://purl.org/dc/elements/1.1/"
   xmlns:cc="http://creativecommons.org/ns#"
   xmlns:rdf="http://www.w3.org/1999/02/22-rdf-syntax-ns#"
   xmlns:svg="http://www.w3.org/2000/svg"
   xmlns="http://www.w3.org/2000/svg"
   xmlns:sodipodi="http://sodipodi.sourceforge.net/DTD/sodipodi-0.dtd"
   xmlns:inkscape="http://www.inkscape.org/namespaces/inkscape"
   width="100"
   height="100"
   viewBox="0 0 26.458333 26.458334"
   version="1.1"
   id="svg8"
   inkscape:version="1.0.2-2 (e86c870879, 2021-01-15)">
  <defs
     id="defs2" />
  <sodipodi:namedview
     id="base"
     pagecolor="#ffffff"
     bordercolor="#666666"
     borderopacity="1.0"
     inkscape:pageopacity="0.0"
     inkscape:pageshadow="2"
     inkscape:zoom="6.5485359"
     inkscape:cx="56.534221"
     inkscape:cy="47.92871"
     inkscape:document-units="mm"
     inkscape:current-layer="layer1"
     inkscape:document-rotation="0"
     showgrid="false"
     units="px"
     showguides="true"
     inkscape:guide-bbox="true"
     inkscape:window-width="1898"
     inkscape:window-height="974"
     inkscape:window-x="10"
     inkscape:window-y="0"
     inkscape:window-maximized="0">
    <sodipodi:guide
       position="-25.268953,21.812788"
       orientation="1,0"
       id="guide949" />
    <sodipodi:guide
       position="-25.268953,21.812788"
       orientation="1,0"
       id="guide951" />
    <sodipodi:guide
       position="-12.106574,18.293435"
       orientation="1,0"
       id="guide1033" />
  </sodipodi:namedview>
  <metadata
     id="metadata5">
    <rdf:RDF>
      <cc:Work
         rdf:about="">
        <dc:format>image/svg+xml</dc:format>
        <dc:type
           rdf:resource="http://purl.org/dc/dcmitype/StillImage" />
        <dc:title></dc:title>
      </cc:Work>
    </rdf:RDF>
  </metadata>
  <g
     inkscape:label="Calque 1"
     inkscape:groupmode="layer"
     id="layer1">
    <g
       id="g961"
       style="fill:#001d00;fill-opacity:1;stroke:#000000;stroke-opacity:1;stroke-width:0.03058153;stroke-miterlimit:4;stroke-dasharray:none"
       transform="matrix(1.3316761,0,0,1.2847035,-2.1966634,-1.2068573)">
      <ellipse
         style="fill:#329224;fill-opacity:0.892272;stroke:#000000;stroke-width:0.03058153;stroke-opacity:1;stroke-miterlimit:4;stroke-dasharray:none"
         id="path1063"
         cx="11.752863"
         cy="10.625888"
         rx="4.7634249"
         ry="4.9375901" />
    </g>
  </g>
  <g
     inkscape:groupmode="layer"
     id="layer3"
     inkscape:label="Calque 2"
     sodipodi:insensitive="true">
    <path
       style="fill:none;stroke:#000000;stroke-width:0.264583px;stroke-linecap:butt;stroke-linejoin:miter;stroke-opacity:1"
       d="m 17.41388,7.6362488 c 0,0 -0.565648,-0.8080687 -1.858558,2.6666272 -1.29291,3.474695 -3.99994,4.48478 -3.99994,4.48478 0,0 -2.4242062,0.848473 -3.7575194,0.323224"
       id="path1069"
       sodipodi:nodetypes="cscc" />
    <path
       style="fill:none;stroke:#000000;stroke-width:0.271624px;stroke-linecap:butt;stroke-linejoin:miter;stroke-opacity:1"
       d="m 18.673921,8.8672261 c 0,0 -0.584434,-0.8242716 -1.920285,2.7200969 -1.33585,3.544368 -4.132785,4.574705 -4.132785,4.574705 0,0 -2.504719,0.865487 -3.8823139,0.329706"
       id="path1069-6"
       sodipodi:nodetypes="cscc" />
    <path
       style="fill:#f5f124;fill-opacity:0.892272;stroke:none;stroke-width:0.346294;stroke-miterlimit:4;stroke-dasharray:none"
       d="m 31.90405,61.528378 c -0.829227,-1.077263 -2.434812,-3.612295 -2.344854,-3.702252 0.02393,-0.02393 0.519786,0.0574 1.10191,0.180713 1.39551,0.295628 4.423899,0.29063 6.459869,-0.01066 6.474242,-0.958084 10.074399,-2.696254 14.501539,-7.0014 3.471444,-3.375786 5.653561,-6.778961 7.742956,-12.075717 2.491031,-6.31493 4.333587,-9.488911 5.678148,-9.781155 0.233143,-0.05067 0.573337,-0.164349 0.755984,-0.25261 0.282014,-0.136278 0.441207,-0.07117 1.055798,0.431821 0.694934,0.568744 2.964233,3.081332 2.964233,3.282025 0,0.05343 -0.207561,0.138666 -0.461248,0.189403 -0.627294,0.125459 -1.831632,1.286608 -2.697661,2.600919 -0.926844,1.406608 -2.34608,4.390946 -3.63931,7.652656 -1.622263,4.091581 -2.837167,6.310157 -4.988136,9.109001 -2.735285,3.559156 -7.266259,7.177586 -10.506886,8.390782 -1.268444,0.47487 -3.972435,1.139898 -6.091016,1.498043 -2.314388,0.391248 -5.705536,0.432377 -7.170707,0.08697 -1.000011,-0.235748 -1.247155,-0.204805 -1.247155,0.156146 0,0.501938 -0.305626,0.294789 -1.113464,-0.754685 z"
       id="path1091"
       transform="scale(0.26458333)" />
  </g>
</svg>
